<?xml version="1.0" standalone="no"?>
<!DOCTYPE svg PUBLIC "-//W3C//DTD SVG 20010904//EN"
 "http://www.w3.org/TR/2001/REC-SVG-20010904/DTD/svg10.dtd">
<svg version="1.0" xmlns="http://www.w3.org/2000/svg"
 width="583.000000pt" height="583.000000pt" viewBox="0 0 583.000000 583.000000"
 preserveAspectRatio="xMidYMid meet">

<g transform="translate(0.000000,583.000000) scale(0.100000,-0.100000)"
fill="#000000" stroke="none">
<path d="M0 5682 l0 -149 43 -12 c43 -13 277 -95 567 -199 298 -107 371 -135
367 -139 -3 -2 -60 17 -128 42 -68 26 -145 52 -171 59 -25 8 -51 17 -57 21 -7
4 -149 53 -316 110 l-305 104 0 -79 c0 -65 3 -81 17 -89 17 -10 17 -10 1 -11
-16 0 -18 -11 -18 -85 0 -79 2 -86 23 -96 l22 -10 -22 5 -23 4 0 -2579 0
-2579 2915 0 2915 0 0 2915 0 2915 -1167 0 -1166 0 106 -84 c93 -74 179 -141
291 -226 18 -14 51 -40 72 -58 21 -17 71 -57 109 -88 208 -166 439 -356 445
-364 3 -4 25 -24 50 -45 106 -88 440 -400 454 -424 5 -9 -44 34 -110 94 -160
148 -211 193 -521 455 -12 10 -57 46 -100 80 -43 34 -85 67 -93 73 -8 7 -51
42 -96 77 -45 36 -117 92 -160 126 -43 33 -149 114 -234 180 -86 65 -181 138
-211 162 l-56 42 -582 0 c-386 0 -580 -3 -576 -10 3 -5 2 -10 -4 -10 -5 0 -13
5 -16 10 -3 6 -20 10 -37 10 -39 0 -33 -6 47 -50 148 -82 208 -117 344 -199
184 -111 182 -109 276 -169 44 -28 112 -70 150 -93 73 -44 192 -119 235 -149
14 -9 54 -36 90 -60 36 -24 67 -45 69 -47 2 -2 1 -6 -2 -9 -6 -7 -76 36 -105
64 -7 6 -17 12 -22 12 -5 0 -15 6 -22 14 -8 8 -48 31 -89 52 -41 22 -81 46
-89 55 -8 9 -31 22 -50 29 -19 7 -39 18 -45 24 -5 6 -35 23 -65 39 -68 34
-171 92 -186 105 -6 6 -30 20 -54 32 -33 17 -40 24 -29 32 10 7 9 8 -7 3 -20
-5 -104 37 -164 83 -14 10 -63 41 -110 67 -47 26 -101 58 -120 70 -19 13 -66
39 -103 59 l-68 35 -542 1 -542 0 233 -114 c226 -112 310 -160 155 -90 -43 20
-100 46 -128 59 -65 29 -125 55 -207 90 -37 16 -65 32 -63 35 6 9 -20 11 -175
16 l-145 3 50 -24 c142 -69 222 -105 232 -105 6 0 13 -7 17 -15 7 -19 2 -19
-42 1 -21 9 -55 25 -77 34 -22 10 -66 30 -97 44 -31 14 -61 26 -67 26 -6 0
-26 9 -46 20 -34 19 -54 20 -350 20 l-315 0 0 -148z m1998 82 c169 -81 273
-134 302 -154 14 -10 41 -25 60 -34 71 -32 320 -177 353 -204 36 -31 7 -21
-53 17 -35 23 -67 41 -72 41 -5 0 -28 13 -51 29 -60 41 -200 116 -454 242
-123 61 -223 112 -223 115 0 11 31 0 138 -52z m363 9 c13 -17 13 -17 -6 -3
-11 8 -22 16 -24 17 -2 2 0 3 6 3 6 0 17 -8 24 -17z m-244 -104 c59 -29 119
-60 133 -69 14 -9 72 -42 130 -72 94 -49 175 -98 190 -115 7 -8 -120 57 -150
78 -32 21 -132 76 -295 161 -71 37 -127 68 -123 68 3 0 55 -23 115 -51z m-577
-94 c14 -8 21 -14 15 -14 -5 0 -21 6 -35 14 -14 8 -20 14 -15 14 6 0 21 -6 35
-14z m1080 -190 c19 -14 30 -25 24 -25 -10 0 -73 49 -63 50 3 0 20 -11 39 -25z
m100 -56 c27 -17 50 -33 50 -35 0 -6 -71 31 -95 50 -34 26 -8 18 45 -15z m54
6 c16 -12 17 -15 4 -15 -8 0 -21 7 -28 15 -16 19 -1 19 24 0z m-2579 -45 c13
-6 15 -9 5 -9 -8 0 -22 4 -30 9 -18 12 -2 12 25 0z m2624 -29 c-6 -2 -18 4
-27 13 -15 15 -15 15 10 4 15 -7 23 -15 17 -17z m-2734 -129 c-3 -3 -11 0 -18
7 -9 10 -8 11 6 5 10 -3 15 -9 12 -12z m1070 -13 c5 -5 -5 -4 -23 2 -17 6 -32
13 -32 16 0 7 43 -8 55 -18z m50 -19 c3 -6 -1 -7 -9 -4 -18 7 -21 14 -7 14 6
0 13 -4 16 -10z m122 -46 c-3 -3 -12 -4 -19 -1 -8 3 -5 6 6 6 11 1 17 -2 13
-5z m2138 -14 c3 -5 1 -10 -4 -10 -6 0 -11 5 -11 10 0 6 2 10 4 10 3 0 8 -4
11 -10z m50 -30 c3 -6 -1 -7 -9 -4 -18 7 -21 14 -7 14 6 0 13 -4 16 -10z m41
-37 c-7 -7 -26 7 -26 19 0 6 6 6 15 -2 9 -7 13 -15 11 -17z m-1296 -33 c14
-11 31 -20 38 -20 6 0 12 -4 12 -10 0 -5 -20 0 -45 12 -25 12 -45 26 -45 30 0
13 13 9 40 -12z m1351 3 c13 -15 12 -15 -8 -4 -24 12 -29 21 -14 21 5 0 15 -7
22 -17z m69 -49 c0 -2 -9 0 -20 6 -11 6 -20 13 -20 16 0 2 9 0 20 -6 11 -6 20
-13 20 -16z m-1320 -9 c14 -8 21 -14 15 -14 -5 0 -21 6 -35 14 -14 8 -20 14
-15 14 6 0 21 -6 35 -14z m85 -46 c15 -14 -7 -10 -35 7 l-25 15 25 -7 c14 -3
29 -10 35 -15z m1321 -7 c-4 -3 -14 2 -24 12 -16 18 -16 18 6 6 13 -6 21 -14
18 -18z m144 -92 c8 -5 11 -10 5 -10 -5 0 -17 5 -25 10 -8 5 -10 10 -5 10 6 0
17 -5 25 -10z m-1230 -25 c16 -19 0 -19 -26 0 -16 12 -16 14 -3 15 9 0 22 -7
29 -15z m1284 -24 c-2 -3 -12 3 -22 13 -16 17 -16 18 5 5 12 -7 20 -15 17 -18z
m-1243 -8 c13 -16 12 -17 -3 -4 -17 13 -22 21 -14 21 2 0 10 -8 17 -17z m1284
-13 c3 -5 1 -10 -4 -10 -6 0 -11 5 -11 10 0 6 2 10 4 10 3 0 8 -4 11 -10z
m-1130 -70 c3 -5 1 -10 -4 -10 -6 0 -11 5 -11 10 0 6 2 10 4 10 3 0 8 -4 11
-10z m2196 -107 c13 -16 12 -17 -3 -4 -17 13 -22 21 -14 21 2 0 10 -8 17 -17z
m-1788 -218 c44 -7 88 -21 98 -31 24 -22 25 -81 1 -112 -22 -28 -47 -30 -172
-13 -460 61 -952 -140 -1231 -504 -186 -242 -269 -498 -269 -825 0 -165 9
-242 46 -387 23 -94 24 -105 10 -131 -25 -48 -88 -58 -124 -20 -50 54 -95 308
-95 538 -1 425 134 763 420 1053 216 220 507 373 812 427 132 23 390 26 504 5z
m-94 -231 c215 -31 444 -128 608 -258 238 -189 424 -511 477 -825 69 -410 -97
-842 -430 -1120 -158 -132 -322 -215 -524 -268 -129 -34 -351 -42 -495 -19
-193 32 -432 132 -587 246 -80 59 -99 85 -100 139 -1 70 53 126 122 126 28 0
58 -15 136 -67 106 -71 209 -123 313 -157 366 -120 762 -23 1037 253 134 135
220 284 265 461 32 124 32 312 1 436 -82 332 -320 619 -607 734 -163 65 -302
88 -502 83 l-135 -3 -34 39 c-27 32 -34 48 -34 83 0 57 47 112 106 123 69 14
273 10 383 -6z m-283 -374 c76 -37 136 -101 177 -188 26 -56 31 -78 31 -142 0
-115 -30 -188 -113 -271 -86 -86 -150 -112 -266 -107 -141 6 -251 80 -318 217
-27 56 -31 74 -31 150 -1 76 3 94 31 153 51 108 149 190 260 218 65 16 161 4
229 -30z m-952 -522 c13 -20 12 -35 -5 -118 -26 -134 -26 -329 2 -463 25 -125
75 -255 140 -364 52 -87 58 -112 33 -137 -46 -46 -91 -3 -174 169 -98 202
-125 325 -125 570 0 189 19 317 51 350 23 22 61 19 78 -7z m371 -23 c31 -30
31 -35 -1 -142 -65 -216 -18 -469 121 -649 155 -203 427 -313 673 -275 165 26
282 84 408 204 70 66 86 77 117 77 27 0 41 -7 56 -26 30 -38 26 -66 -14 -116
-173 -210 -484 -332 -765 -298 -121 15 -204 41 -310 96 -215 113 -373 309
-442 549 -31 108 -33 342 -4 450 21 79 42 124 65 142 26 20 70 15 96 -12z
m2595 -2331 c14 -3 44 -24 67 -45 24 -22 49 -39 57 -39 9 0 38 -20 66 -45 39
-35 59 -45 85 -45 19 0 45 -5 58 -11 27 -12 57 -58 57 -87 0 -11 7 -26 17 -33
22 -19 53 -88 53 -122 0 -49 -16 -67 -60 -67 -43 0 -58 13 -39 36 10 12 8 19
-10 37 -25 28 -26 39 -4 75 13 21 10 20 -16 -8 -17 -19 -41 -55 -52 -80 -24
-52 -33 -60 -76 -60 -40 0 -47 11 -28 46 8 16 15 39 15 52 0 12 9 42 20 65
l21 42 -24 -29 c-33 -39 -59 -24 -80 46 -8 29 -16 44 -16 33 0 -11 6 -39 14
-62 16 -47 10 -76 -25 -120 -13 -17 -18 -33 -14 -50 6 -23 5 -24 -42 -21 -47
3 -48 4 -56 41 -6 27 -3 56 8 95 12 40 15 73 10 120 -5 51 -3 70 9 89 9 14 15
27 12 29 -2 3 -12 -7 -22 -22 -13 -21 -16 -39 -11 -79 4 -40 2 -56 -9 -65 -8
-7 -15 -23 -15 -35 0 -12 -11 -39 -25 -59 -14 -20 -25 -43 -25 -51 0 -7 -9
-17 -20 -20 -12 -4 -19 -14 -18 -23 3 -19 -37 -28 -78 -18 -29 8 -30 14 -2 90
17 46 36 75 78 116 65 63 80 90 49 90 -11 0 -31 11 -45 24 -22 20 -24 27 -15
45 7 12 10 25 7 30 -3 4 1 17 9 27 8 10 15 27 15 36 0 21 39 49 60 44 8 -3 26
-8 40 -12z"/>
<path d="M2667 3616 c-158 -58 -243 -227 -191 -380 22 -64 100 -148 165 -176
42 -18 66 -21 123 -18 82 4 128 24 181 76 146 144 109 391 -72 482 -58 29
-151 37 -206 16z m161 -72 c71 -29 132 -107 147 -186 9 -49 -17 -134 -55 -180
-43 -51 -103 -78 -177 -78 -52 0 -68 5 -109 33 -88 58 -129 187 -90 281 48
115 178 175 284 130z"/>
</g>
</svg>
